<svg width="120" height="100" viewBox="0 0 120 100" fill="none" xmlns="http://www.w3.org/2000/svg">
<g id="Frame 1" clip-path="url(#clip0)">
<g id="lightGroup">
<path id="light" d="M36.3198 48.8086C37.5633 49.5934 37.5633 51.4066 36.3198 52.1914L9.81735 68.9159C8.48559 69.7563 6.75 68.7993 6.75 67.2245V33.7755C6.75 32.2007 8.48559 31.2437 9.81736 32.0841L36.3198 48.8086Z" fill="#28CAFD" fill-opacity="0.75"/>
</g>
<g id="darkGroup">
<path id="dark1" d="M51.3198 48.8086C52.5633 49.5934 52.5633 51.4066 51.3198 52.1914L24.8174 68.9159C23.4856 69.7563 21.75 68.7993 21.75 67.2245V33.7755C21.75 32.2007 23.4856 31.2437 24.8174 32.0841L51.3198 48.8086Z" fill="#4D5DEE" fill-opacity="0.75"/>
<path id="dark2" d="M36.3198 48.8086C37.5633 49.5934 37.5633 51.4066 36.3198 52.1914L9.81735 68.9159C8.48559 69.7563 6.75 68.7993 6.75 67.2245V33.7755C6.75 32.2007 8.48559 31.2437 9.81736 32.0841L36.3198 48.8086Z" fill="#4D5DEE" fill-opacity="0.75"/>
</g>
</g>
<defs>
<clipPath id="clip0">
<rect width="120" height="100" fill="white"/>
</clipPath>
</defs>
</svg>
